<svg width="1317" height="921" viewBox="0 0 1317 921" fill="none" xmlns="http://www.w3.org/2000/svg">
<g opacity="0.6">
<path d="M1409 126.792C1585.73 126.792 1729 270.061 1729 446.792V601.001C1729 777.732 1585.73 921 1409 921H320C143.269 921 0 777.731 0 601V446.792C0 270.061 143.269 126.792 320 126.792H1409ZM326.126 214.899C158.556 214.899 22.714 350.742 22.7139 518.312C22.7139 685.882 158.556 821.725 326.126 821.725H1398.33C1565.9 821.724 1701.74 685.881 1701.74 518.312C1701.74 350.742 1565.9 214.899 1398.33 214.899H326.126Z" fill="#F29A41"/>
<path d="M1409 0C1585.73 0.00016564 1729 143.269 1729 320V474.209C1729 650.94 1585.73 794.208 1409 794.208H320C143.269 794.208 0 650.939 0 474.208V320C0 143.269 143.269 0 320 0H1409ZM326.126 88.1074C158.556 88.1074 22.7141 223.95 22.7139 391.52C22.7139 559.09 158.556 694.933 326.126 694.933H1398.33C1565.9 694.932 1701.74 559.089 1701.74 391.52C1701.74 223.95 1565.9 88.1074 1398.33 88.1074H326.126Z" fill="#D96033"/>
</g>
</svg>
